<svg width="40" height="40" viewBox="0 0 40 40" fill="none" xmlns="http://www.w3.org/2000/svg">
<rect width="40" height="40" rx="20" fill="#2563EB"/>
<path d="M14.75 29L14.5 26.8L17.35 18.95C17.6 19.1833 17.8708 19.3792 18.1625 19.5375C18.4542 19.6958 18.7667 19.8167 19.1 19.9L16.35 27.45L14.75 29V29M25.25 29L23.65 27.45L20.9 19.9C21.2333 19.8167 21.5458 19.6958 21.8375 19.5375C22.1292 19.3792 22.4 19.1833 22.65 18.95L25.5 26.8L25.25 29V29M20 19C19.1667 19 18.4583 18.7083 17.875 18.125C17.2917 17.5417 17 16.8333 17 16C17 15.35 17.1875 14.7708 17.5625 14.2625C17.9375 13.7542 18.4167 13.4 19 13.2V11H21V13.2C21.5833 13.4 22.0625 13.7542 22.4375 14.2625C22.8125 14.7708 23 15.35 23 16C23 16.8333 22.7083 17.5417 22.125 18.125C21.5417 18.7083 20.8333 19 20 19V19M20 17C20.2833 17 20.5208 16.9042 20.7125 16.7125C20.9042 16.5208 21 16.2833 21 16C21 15.7167 20.9042 15.4792 20.7125 15.2875C20.5208 15.0958 20.2833 15 20 15C19.7167 15 19.4792 15.0958 19.2875 15.2875C19.0958 15.4792 19 15.7167 19 16C19 16.2833 19.0958 16.5208 19.2875 16.7125C19.4792 16.9042 19.7167 17 20 17V17" fill="white"/>
</svg>
